<svg width="92" height="132" viewBox="0 0 92 132" fill="none" xmlns="http://www.w3.org/2000/svg">
<circle cx="43.5" cy="47.5" r="43.5" fill="#FF5500"/>
<path d="M27.2324 102.994L17.2861 123.253C17.1299 123.565 16.8955 123.814 16.583 124C16.2803 124.195 15.9434 124.293 15.5723 124.293C15.2109 124.293 14.874 124.195 14.5615 124C14.2588 123.814 14.0244 123.565 13.8584 123.253L3.92676 102.994H8.18945L15.5723 118.126L22.9844 102.994H27.2324ZM32.8281 104.913H29.0195V101.471H32.8281V104.913ZM32.8281 124H29.0195V108.165H32.8281V124ZM57.877 119.386C57.877 119.854 57.7939 120.357 57.6279 120.895C57.4717 121.432 57.208 121.93 56.8369 122.389C56.4756 122.848 56.002 123.233 55.416 123.546C54.8301 123.849 54.1123 124 53.2627 124H38.8047C38.5312 124 38.2773 123.951 38.043 123.854C37.8086 123.756 37.6035 123.624 37.4277 123.458C37.2617 123.282 37.1299 123.077 37.0322 122.843C36.9346 122.608 36.8857 122.354 36.8857 122.081V104.913C36.8857 104.649 36.9346 104.4 37.0322 104.166C37.1299 103.932 37.2617 103.727 37.4277 103.551C37.6035 103.375 37.8086 103.238 38.043 103.141C38.2773 103.043 38.5312 102.994 38.8047 102.994H51.5488C52.0176 102.994 52.5205 103.077 53.0576 103.243C53.5947 103.409 54.0928 103.678 54.5518 104.049C55.0205 104.41 55.4062 104.884 55.709 105.47C56.0215 106.056 56.1777 106.773 56.1777 107.623V108.341C56.1777 109.015 56.0654 109.742 55.8408 110.523C55.6162 111.295 55.2549 112.027 54.7568 112.721C55.1865 112.984 55.5869 113.302 55.958 113.673C56.3389 114.044 56.6709 114.474 56.9541 114.962C57.2373 115.45 57.4619 116.002 57.6279 116.617C57.7939 117.232 57.877 117.911 57.877 118.653V119.386ZM54.0684 118.653C54.0684 118.155 53.9902 117.711 53.834 117.32C53.6777 116.92 53.458 116.578 53.1748 116.295C52.8916 116.012 52.5498 115.797 52.1494 115.65C51.749 115.494 51.2998 115.416 50.8018 115.416H42.2178V111.578H49.0879C49.5859 111.578 50.0352 111.505 50.4355 111.358C50.8359 111.202 51.1777 110.982 51.4609 110.699C51.7441 110.416 51.959 110.079 52.1055 109.688C52.2617 109.288 52.3398 108.839 52.3398 108.341V107.623C52.3398 107.076 52.0762 106.803 51.5488 106.803H40.6943V120.191H53.2627C53.3311 120.191 53.4141 120.187 53.5117 120.177C53.6094 120.167 53.6973 120.138 53.7754 120.089C53.8535 120.04 53.9219 119.957 53.9805 119.84C54.0391 119.723 54.0684 119.562 54.0684 119.356V118.653ZM82.1641 119.386C82.1641 119.854 82.0811 120.357 81.915 120.895C81.7588 121.432 81.4951 121.93 81.124 122.389C80.7627 122.848 80.2891 123.233 79.7031 123.546C79.1172 123.849 78.3994 124 77.5498 124H63.0918C62.8184 124 62.5645 123.951 62.3301 123.854C62.0957 123.756 61.8906 123.624 61.7148 123.458C61.5488 123.282 61.417 123.077 61.3193 122.843C61.2217 122.608 61.1729 122.354 61.1729 122.081V104.913C61.1729 104.649 61.2217 104.4 61.3193 104.166C61.417 103.932 61.5488 103.727 61.7148 103.551C61.8906 103.375 62.0957 103.238 62.3301 103.141C62.5645 103.043 62.8184 102.994 63.0918 102.994H75.8359C76.3047 102.994 76.8076 103.077 77.3447 103.243C77.8818 103.409 78.3799 103.678 78.8389 104.049C79.3076 104.41 79.6934 104.884 79.9961 105.47C80.3086 106.056 80.4648 106.773 80.4648 107.623V108.341C80.4648 109.015 80.3525 109.742 80.1279 110.523C79.9033 111.295 79.542 112.027 79.0439 112.721C79.4736 112.984 79.874 113.302 80.2451 113.673C80.626 114.044 80.958 114.474 81.2412 114.962C81.5244 115.45 81.749 116.002 81.915 116.617C82.0811 117.232 82.1641 117.911 82.1641 118.653V119.386ZM78.3555 118.653C78.3555 118.155 78.2773 117.711 78.1211 117.32C77.9648 116.92 77.7451 116.578 77.4619 116.295C77.1787 116.012 76.8369 115.797 76.4365 115.65C76.0361 115.494 75.5869 115.416 75.0889 115.416H66.5049V111.578H73.375C73.873 111.578 74.3223 111.505 74.7227 111.358C75.123 111.202 75.4648 110.982 75.748 110.699C76.0312 110.416 76.2461 110.079 76.3926 109.688C76.5488 109.288 76.627 108.839 76.627 108.341V107.623C76.627 107.076 76.3633 106.803 75.8359 106.803H64.9814V120.191H77.5498C77.6182 120.191 77.7012 120.187 77.7988 120.177C77.8965 120.167 77.9844 120.138 78.0625 120.089C78.1406 120.04 78.209 119.957 78.2676 119.84C78.3262 119.723 78.3555 119.562 78.3555 119.356V118.653Z" fill="#FF5500"/>
<circle cx="72" cy="20" r="20" fill="white"/>
</svg>
