<svg xmlns="http://www.w3.org/2000/svg" width="343" height="343" viewBox="0 0 343 343"><path d="M.853 329.445v-14.408l7.03-7.284c3.866-4.007 7.285-8.306 7.598-9.553 1.528-6.088 19.73-15.517 36.372-18.842 1.925-.385 6.65-1.742 10.5-3.016s9.588-3.043 12.75-3.931c7.07-1.984 7.255-3.124 2.167-13.451-1.97-4-3.35-7.507-3.064-7.793.285-.285 2.059 2.598 3.941 6.407 3.896 7.883 4.995 9.385 12.956 17.705 3.163 3.306 5.75 6.609 5.75 7.34 0 .732.9 3.194 2 5.47 1.1 2.277 2 4.929 2 5.893s.45 2.031 1 2.371 1 2.167 1 4.06.45 3.44 1 3.44c1.304 0 1.304-6.694 0-7.5-.55-.34-1-1.497-1-2.572s-.551-2.838-1.225-3.916c-.898-1.439-.928-2.258-.113-3.073s3.982 1.739 11.883 9.582c12.06 11.973 21.167 19.47 29.262 24.09 3.103 1.771 4.98 3.404 4.355 3.79-.603.372-.85 1.907-.55 3.411.396 1.977-.029 3.256-1.532 4.616-1.981 1.793-2.171 1.8-4.008.137-1.232-1.115-2.677-1.507-4-1.087-1.976.627-2.218 1.064-2.498 4.522-.067.837-.885 1.37-1.847 1.206-1.168-.198-1.727.368-1.727 1.75 0 1.125-.505 2.044-1.122 2.044-.776 0-.738.464.122 1.5 1.06 1.276.802 1.5-1.724 1.5-2.108 0-3.259-.647-3.965-2.23l-.995-2.229-1.193 2.23c-1.112 2.078-1.873 2.23-11.193 2.23-9.78 0-9.976-.046-8.9-2.056.605-1.13.891-2.593.636-3.25s-1.003.268-1.662 2.055l-1.2 3.25H.854Zm104 3.85c0-1.452-.433-2.292-1-1.942-.55.34-1 1.492-1 2.56 0 1.067.45 1.94 1 1.94s1-1.151 1-2.559m2-15c0-7.452-.355-11.34-1-10.942-.568.351-1 5.344-1 11.56 0 6.627.395 10.94 1 10.94.61 0 1-4.52 1-11.559m136 24.838c0-1.07 5.102-16.505 6.12-18.516 1.17-2.308 1.131-13.49-.048-14.22-.51-.315-1.237.446-1.615 1.692s-1.475 3.164-2.438 4.264-2.553 4.152-3.533 6.783c-.98 2.63-2.166 5.02-2.634 5.309-.469.29-.852 1.598-.852 2.908s-.45 2.66-1 3-1 1.647-1 2.904c0 1.258-.9 3.1-2 4.096-1.944 1.76-2 1.747-2-.461 0-1.78-.433-2.159-2-1.749-1.262.33-2 .03-2-.812 0-2.289-2.767-4.245-5.315-3.758-1.335.255-3.948-.325-5.806-1.29s-4.504-1.857-5.879-1.982-5.2-.927-8.5-1.782-7.158-1.793-8.573-2.085c-1.415-.291-4.259-1.674-6.32-3.072s-3.42-2.015-3.02-1.37c.523.848-.15.999-2.422.544-2.21-.442-3.075-.265-2.906.594.133.673-1.004 1.366-2.526 1.541s-2.507.738-2.19 1.25c.316.513-.314.932-1.4.932-1.087 0-2.18.563-2.43 1.25-.652 1.789-4.298-.538-3.945-2.517.169-.95-1.298-2.128-4-3.21l-4.268-1.708 3.921-1.348c2.157-.742 5.757-1.637 8-1.988 5.301-.831 10.58-2.667 10.58-3.68 0-.44.674-.799 1.5-.799.824 0 1.5-.397 1.5-.883s.875-1.112 1.945-1.392c1.093-.286 1.911-1.324 1.867-2.367-.044-1.022.253-2.645.66-3.608.57-1.347.256-1.75-1.366-1.75-1.159 0-2.107-.45-2.107-1s-.566-1-1.257-1c-.903 0-1.256-2.187-1.25-7.75.006-5.67-.328-7.683-1.243-7.5-.687.138-1.25-.641-1.25-1.73 0-1.28-.886-2.204-2.5-2.61-1.375-.344-2.5-.986-2.5-1.424 0-.44-2.261-1.11-5.026-1.49s-5.657-1.322-6.428-2.093c-.772-.772-2.223-1.409-3.224-1.416s-4.685-.91-8.184-2.007c-6.807-2.134-12.138-2.298-12.138-.374 0 2.606-3.115 2.14-6.913-1.033-2.195-1.834-3.713-3.613-3.372-3.954.34-.34.034-.619-.68-.619s-2.72-1.462-4.456-3.25c-1.737-1.787-4.827-4.597-6.868-6.244s-3.71-3.583-3.71-4.301c0-1.638 5.989-4.205 9.812-4.205 3.205 0 9.566 4.861 7.437 5.684-1.943.75-1.487 2.88 1.333 6.232 3.008 3.575 6.655 5.34 14.781 7.151 7.56 1.685 20.671.02 24.996-3.175 2.347-1.735 3.286-1.918 5.25-1.024 1.914.873 2.39.804 2.39-.342 0-2.642 2.112-6.1 4.316-7.067 1.201-.527 2.328-1.971 2.504-3.209.365-2.57-.996-2.947-2.798-.776-1.076 1.296-1.565 1.297-4.059.007-3.103-1.605-5.963-1.064-5.963 1.126 0 1.795-.966 1.756-4.884-.2-1.756-.875-3.913-1.315-4.793-.977-1.628.625-7.323-1.377-7.323-2.573 0-.778 7.618-4.857 9.072-4.857.555 0 2.28-.94 3.835-2.089l2.826-2.089-1.832-3.79c-1.93-3.996-3.484-5.032-7.548-5.032-3.802 0-6.353-1.797-6.353-4.476 0-1.323.48-2.703 1.068-3.066.647-.4.81-2.097.414-4.309-1.458-8.131-1.622-10.944-.672-11.531.626-.387.275-2.52-.941-5.722-1.373-3.613-1.636-5.47-.9-6.357 1.22-1.47.462-6.643-1.672-11.414-.83-1.856-1.124-3.656-.653-4 .47-.344.985-2.288 1.143-4.32.224-2.9-.164-3.936-1.802-4.813-1.15-.615-1.96-1.883-1.8-2.819.234-1.387-3.273-6.173-4.525-6.173-.188 0-.288 1.838-.223 4.084.086 2.973-.365 4.343-1.66 5.035-.977.523-1.777 1.548-1.777 2.276s-1.622 2.85-3.605 4.715c-3.622 3.405-5.53 5.455-10.675 11.472-1.584 1.852-4.78 3.932-7.428 4.834-8.99 3.064-28.73 1.533-45.003-3.49-5.384-1.662-10.464-3.112-11.289-3.224-1.223-.164-1.613 1.828-2.116 10.798-.78 13.917-.087 17.702 6.566 35.884 1.99 5.436 3.44 10.059 3.226 10.274-.215.215-1.649-3.108-3.187-7.384-1.539-4.275-4.078-10.348-5.643-13.495-1.983-3.988-2.846-7.234-2.846-10.713 0-2.746-.848-7.146-1.884-9.779s-2.366-7.878-2.953-11.655c-.587-3.778-1.698-7.603-2.47-8.5-.77-.898-2.665-3.996-4.208-6.885-2.283-4.273-3.756-5.705-7.896-7.67-2.799-1.329-6.439-3.853-8.089-5.61-1.65-1.756-4.604-4.22-6.565-5.476-3.8-2.433-4.107-3.304-6.989-19.81-1.436-8.224-1.367-16.813.307-38.656.746-9.721 1.375-13.008 2.852-14.885 1.042-1.325 1.895-3.374 1.895-4.553s1.503-5.28 3.34-9.115c1.838-3.834 3.918-8.772 4.624-10.972s2.078-4.9 3.05-6c.973-1.1 3.237-4.475 5.032-7.5s5.167-7.525 7.492-10 5.88-6.705 7.901-9.4c4.325-5.77 6.388-7.457 12.923-10.57 2.875-1.37 5.939-3.855 7.5-6.084 1.45-2.073 5.095-5.271 8.098-7.107l5.46-3.339 72.526-.299c39.89-.164 73.433-.07 74.54.208 1.108.28 2.464 1.54 3.014 2.8.553 1.266 3.317 3.41 6.178 4.791 6.719 3.245 16.748 10.57 18.255 13.333.65 1.192 2.728 3.292 4.619 4.667 4.317 3.14 13.724 16.956 15.835 23.256 1.092 3.26 1.568 8.134 1.512 15.5-.045 5.91.374 14.57.933 19.244.694 5.817.684 11.499-.03 18-.576 5.225-1.329 17.6-1.674 27.5-.391 11.226-1.087 18.802-1.85 20.131-1.716 2.996-4.448 11.089-5.44 16.12a297 297 0 0 1-1.962 9c-.618 2.612-1.51 11.95-1.98 20.75-1.522 28.41-2.028 33.77-3.388 35.903-.735 1.153-1.65 6.453-2.036 11.778-.686 9.491-.649 9.732 1.869 12.25 1.413 1.412 3.659 2.568 4.991 2.568 1.333 0 2.964.652 3.625 1.448 1.933 2.33 8.818 4.443 19.632 6.028 5.55.813 12.074 2.378 14.5 3.48 2.426 1.1 5.111 2.01 5.967 2.022s3.08 1.147 4.944 2.522c2.649 1.954 4.603 2.503 8.945 2.514 3.055.008 6.568.285 7.805.617l2.25.603v65.766h-50.5c-27.775 0-50.5-.324-50.5-.72m8.93-40.03c.039-.687-.38-1.25-.93-1.25s-.968 1.463-.93 3.25c.06 2.724.21 2.926.93 1.25.473-1.1.891-2.562.93-3.25m2.07-7.19c0-.518-.45-1.22-1-1.56s-1 .084-1 .941c0 .858.45 1.56 1 1.56s1-.424 1-.942m2-8.5c0-.243-.45-.72-1-1.06s-1-.141-1 .441c0 .583.45 1.06 1 1.06s1-.2 1-.442m-34.617-16.486c6.51-9.65 10.252-28.25 7.81-38.83-.652-2.824-.646-4.464.019-4.875.63-.389.543-.902-.234-1.382-1.867-1.155-1.648-12.032.304-15.024 3.84-5.888 3.875-16.659.063-19.629-.823-.64-1.589-1.766-1.7-2.5-.37-2.414-5.274-6.33-8.237-6.575-1.6-.132-7.183 1.066-12.408 2.663s-11.385 3.402-13.69 4.013c-2.677.709-4.416 1.823-4.817 3.087-.345 1.088-1.497 1.978-2.56 1.978-3.29 0-2.164 1.653 3.817 5.603 8.67 5.725 12.25 9.774 12.25 13.856 0 1.883.481 3.72 1.068 4.083s.848 1.235.579 1.938c-.651 1.695 1.242 3.5 2.975 2.835.789-.303 1.378.105 1.378.953 0 .816 1.396 2.159 3.103 2.985 1.706.826 2.648 1.783 2.094 2.126-1.468.907-.228 4.621 1.542 4.621 1.205 0 1.265.291.298 1.456-1.187 1.43-.554 3.98.782 3.158 1.212-.746 1.273 5.736.107 11.484-.958 4.727-.885 6.08.47 8.7 1.944 3.76 1.977 7.41.115 12.636-2.513 7.054.296 7.423 4.872.64m-2.679-35.106c-.937-1.095-1.704-2.398-1.704-2.896s-.562-1.168-1.25-1.488c-1-.467-1-.7 0-1.167.688-.32 1.25-1.22 1.25-2 0-2.58 2.951-1.468 3.541 1.333 1.162 5.515 1.202 6.048.54 7.118-.437.708-1.27.393-2.377-.9m-10.704-17.468c0-.275.225-.5.5-.5s.5.225.5.5-.225.5-.5.5a.5.5 0 0 1-.5-.5m52 52c0-.275-.225-.5-.5-.5s-.5.225-.5.5.225.5.5.5.5-.225.5-.5m1.667-8.166c-.367-.367-.667-.067-.667.666s.3 1.034.667.667a.946.946 0 0 0 0-1.333m8.333-56.775c0-.242-.45-.719-1-1.059s-1-.141-1 .441c0 .583.45 1.06 1 1.06s1-.2 1-.442m-.115-10.059c-.067-3.989-.246-4.494-.885-2.5-1.208 3.773-1.208 10.87 0 9 .533-.825.932-3.75.885-6.5m-.885-10c0-.275-.225-.5-.5-.5s-.5.225-.5.5.225.5.5.5.5-.225.5-.5m-108.333-5.166c-.367-.367-.667-.067-.667.666s.3 1.034.667.667a.946.946 0 0 0 0-1.333m-26.976-4.408c1.205-2.434 2.218-5.598 2.25-7.03s1.163-3.794 2.512-5.25c1.925-2.077 3.375-2.642 6.75-2.63 5.024.017 5.368.22 9.286 5.484 4.335 5.824 5.853 7.5 6.79 7.5.459 0 .04-1.344-.93-2.987-1.697-2.872-1.693-3.04.096-4.349 1.023-.748 1.56-1.848 1.191-2.444-1.277-2.066 3.617-4.22 9.587-4.22 5.11 0 5.777.231 5.777 2 0 2.183 2.558 2.768 3.282.75.246-.687.043-2.037-.452-3-.576-1.12-.527-1.75.135-1.75 1.419 0 1.314-2.74-.123-3.22-1.792-.597-2.054-4.761-.34-5.419.976-.374 1.498-1.931 1.498-4.468 0-2.794.424-3.893 1.5-3.893 1.955 0 1.95-3.613-.006-4.364-.828-.318-4.061-.317-7.185 0-4.622.472-5.908.265-6.912-1.109-.713-.974-2.22-1.548-3.565-1.357-2.272.322-2.33.591-2.287 10.58.024 5.638-.088 10.25-.25 10.25s-1.195-.9-2.295-2c-2.177-2.177-6.952-2.63-10.08-.957-2.242 1.2-2.491.752-3.25-5.85-.443-3.854-.24-4.406 1.918-5.226 1.327-.504 2.412-1.428 2.412-2.051 0-.808-2.23-.934-7.75-.44-11.324 1.017-20.295.912-33.25-.388-11.791-1.183-29-.579-29 1.018 0 .492-.9.894-2 .894-2.758 0-2.52 1.832.331 2.547 2.036.511 2.478 1.532 3.492 8.053 1.733 11.149 2.993 12.996 9.915 14.534 6.54 1.453 31.348 1.808 35.512.508 2.689-.84 2.75-.768 2.75 3.19 0 2.228-.45 4.328-1 4.668s-1 2.204-1 4.143c0 4.678 1.863 3.996 4.691-1.717m13.843-18.281c-2.597-1.108-2.734-1.354-1.099-1.981 1.262-.485 2.48-.06 3.755 1.31 2.157 2.315 1.555 2.467-2.656.671m-15.84-2.395c-.618-3.148.74-5.216 2.362-3.594 1.123 1.123.26 6.344-1.048 6.344-.426 0-1.017-1.237-1.314-2.75m.306-11.25c0-.55.424-1 .941-1 .518 0 1.22.45 1.56 1s-.084 1-.942 1c-.857 0-1.559-.45-1.559-1m26 35.5c0-.275-.225-.5-.5-.5s-.5.225-.5.5.225.5.5.5.5-.225.5-.5M57.36 158.843c.343-.555-.253-2.125-1.326-3.489l-1.95-2.48-.523 2.734c-.288 1.504-.313 3.074-.056 3.49.674 1.09 3.124.929 3.855-.254m127.494-9.43c0-1.502-1.795-3.098-2.59-2.303-.697.697.684 3.743 1.697 3.743.491 0 .893-.648.893-1.44m-27-12.06c0-.275-.225-.5-.5-.5s-.5.225-.5.5.225.5.5.5.5-.225.5-.5m16-4.5c0-.55-1.125-1-2.5-1s-2.5.45-2.5 1 1.125 1 2.5 1 2.5-.45 2.5-1m4.667-1.666a.946.946 0 0 0-1.333 0c-.367.366-.067.666.666.666s1.034-.3.667-.666m-44.667-1.16c0-1.386-4.376-4.98-6.5-5.337-1.145-.193-1.957.197-1.9.913.055.688.168 1.892.25 2.677.211 2.008 8.15 3.71 8.15 1.748m4-.674c0-.275-.225-.5-.5-.5s-.5.225-.5.5.225.5.5.5.5-.225.5-.5m-31-3c0-.825-.177-1.5-.393-1.5s-.652.675-.968 1.5c-.317.825-.14 1.5.393 1.5.532 0 .968-.675.968-1.5m5.667-.166c-.367-.367-.667-.067-.667.666s.3 1.034.667.667a.946.946 0 0 0 0-1.333M72.853 248.853c0-.733.3-1.033.667-.666a.946.946 0 0 1 0 1.333c-.367.367-.667.067-.667-.667m25.25-3.748c-3.007-1.007-.959-10.392 4.055-18.572 4.034-6.584 5.976-4.721 2.054 1.97-1.563 2.668-3.296 7.589-3.85 10.936-.681 4.11-1.415 5.95-2.259 5.666m215.75-108.752c0-.275.225-.5.5-.5s.5.225.5.5-.225.5-.5.5a.5.5 0 0 1-.5-.5" style="fill:#000"/></svg>