<svg width="184" height="82" viewBox="0 0 184 82" fill="none" xmlns="http://www.w3.org/2000/svg">
<path d="M49.7188 19.1875L28.5 62.4062C28.1667 63.0729 27.6667 63.6042 27 64C26.3542 64.4167 25.6354 64.625 24.8438 64.625C24.0729 64.625 23.3542 64.4167 22.6875 64C22.0417 63.6042 21.5417 63.0729 21.1875 62.4062L0 19.1875H9.09375L24.8438 51.4688L40.6562 19.1875H49.7188ZM61.6562 23.2812H53.5312V15.9375H61.6562V23.2812ZM61.6562 64H53.5312V30.2188H61.6562V64ZM115.094 54.1562C115.094 55.1562 114.917 56.2292 114.562 57.375C114.229 58.5208 113.667 59.5833 112.875 60.5625C112.104 61.5417 111.094 62.3646 109.844 63.0312C108.594 63.6771 107.062 64 105.25 64H74.4062C73.8229 64 73.2812 63.8958 72.7812 63.6875C72.2812 63.4792 71.8438 63.1979 71.4688 62.8438C71.1146 62.4688 70.8333 62.0312 70.625 61.5312C70.4167 61.0312 70.3125 60.4896 70.3125 59.9062V23.2812C70.3125 22.7188 70.4167 22.1875 70.625 21.6875C70.8333 21.1875 71.1146 20.75 71.4688 20.375C71.8438 20 72.2812 19.7083 72.7812 19.5C73.2812 19.2917 73.8229 19.1875 74.4062 19.1875H101.594C102.594 19.1875 103.667 19.3646 104.812 19.7188C105.958 20.0729 107.021 20.6458 108 21.4375C109 22.2083 109.823 23.2188 110.469 24.4688C111.135 25.7188 111.469 27.25 111.469 29.0625V30.5938C111.469 32.0312 111.229 33.5833 110.75 35.25C110.271 36.8958 109.5 38.4583 108.438 39.9375C109.354 40.5 110.208 41.1771 111 41.9688C111.812 42.7604 112.521 43.6771 113.125 44.7188C113.729 45.7604 114.208 46.9375 114.562 48.25C114.917 49.5625 115.094 51.0104 115.094 52.5938V54.1562ZM106.969 52.5938C106.969 51.5312 106.802 50.5833 106.469 49.75C106.135 48.8958 105.667 48.1667 105.062 47.5625C104.458 46.9583 103.729 46.5 102.875 46.1875C102.021 45.8542 101.062 45.6875 100 45.6875H81.6875V37.5H96.3438C97.4062 37.5 98.3646 37.3438 99.2188 37.0312C100.073 36.6979 100.802 36.2292 101.406 35.625C102.01 35.0208 102.469 34.3021 102.781 33.4688C103.115 32.6146 103.281 31.6562 103.281 30.5938V29.0625C103.281 27.8958 102.719 27.3125 101.594 27.3125H78.4375V55.875H105.25C105.396 55.875 105.573 55.8646 105.781 55.8438C105.99 55.8229 106.177 55.7604 106.344 55.6562C106.51 55.5521 106.656 55.375 106.781 55.125C106.906 54.875 106.969 54.5312 106.969 54.0938V52.5938ZM166.906 54.1562C166.906 55.1562 166.729 56.2292 166.375 57.375C166.042 58.5208 165.479 59.5833 164.688 60.5625C163.917 61.5417 162.906 62.3646 161.656 63.0312C160.406 63.6771 158.875 64 157.062 64H126.219C125.635 64 125.094 63.8958 124.594 63.6875C124.094 63.4792 123.656 63.1979 123.281 62.8438C122.927 62.4688 122.646 62.0312 122.438 61.5312C122.229 61.0312 122.125 60.4896 122.125 59.9062V23.2812C122.125 22.7188 122.229 22.1875 122.438 21.6875C122.646 21.1875 122.927 20.75 123.281 20.375C123.656 20 124.094 19.7083 124.594 19.5C125.094 19.2917 125.635 19.1875 126.219 19.1875H153.406C154.406 19.1875 155.479 19.3646 156.625 19.7188C157.771 20.0729 158.833 20.6458 159.812 21.4375C160.812 22.2083 161.635 23.2188 162.281 24.4688C162.948 25.7188 163.281 27.25 163.281 29.0625V30.5938C163.281 32.0312 163.042 33.5833 162.562 35.25C162.083 36.8958 161.312 38.4583 160.25 39.9375C161.167 40.5 162.021 41.1771 162.812 41.9688C163.625 42.7604 164.333 43.6771 164.938 44.7188C165.542 45.7604 166.021 46.9375 166.375 48.25C166.729 49.5625 166.906 51.0104 166.906 52.5938V54.1562ZM158.781 52.5938C158.781 51.5312 158.615 50.5833 158.281 49.75C157.948 48.8958 157.479 48.1667 156.875 47.5625C156.271 46.9583 155.542 46.5 154.688 46.1875C153.833 45.8542 152.875 45.6875 151.812 45.6875H133.5V37.5H148.156C149.219 37.5 150.177 37.3438 151.031 37.0312C151.885 36.6979 152.615 36.2292 153.219 35.625C153.823 35.0208 154.281 34.3021 154.594 33.4688C154.927 32.6146 155.094 31.6562 155.094 30.5938V29.0625C155.094 27.8958 154.531 27.3125 153.406 27.3125H130.25V55.875H157.062C157.208 55.875 157.385 55.8646 157.594 55.8438C157.802 55.8229 157.99 55.7604 158.156 55.6562C158.323 55.5521 158.469 55.375 158.594 55.125C158.719 54.875 158.781 54.5312 158.781 54.0938V52.5938Z" fill="#020100"/>
<circle cx="174.656" cy="19.5" r="8.5" fill="#FF5500"/>
</svg>
